<?xml version="1.0" encoding="UTF-8" standalone="no"?>
<!-- Created with Inkscape (http://www.inkscape.org/) -->

<svg
   width="182.31189mm"
   height="50.659069mm"
   viewBox="0 0 182.31189 50.659069"
   version="1.1"
   id="svg1"
   inkscape:version="1.3.2 (091e20ef0f, 2023-11-25)"
   sodipodi:docname="sernik.svg"
   xmlns:inkscape="http://www.inkscape.org/namespaces/inkscape"
   xmlns:sodipodi="http://sodipodi.sourceforge.net/DTD/sodipodi-0.dtd"
   xmlns:xlink="http://www.w3.org/1999/xlink"
   xmlns="http://www.w3.org/2000/svg"
   xmlns:svg="http://www.w3.org/2000/svg">
  <sodipodi:namedview
     id="namedview1"
     pagecolor="#ffffff"
     bordercolor="#000000"
     borderopacity="0.25"
     inkscape:showpageshadow="2"
     inkscape:pageopacity="0.0"
     inkscape:pagecheckerboard="0"
     inkscape:deskcolor="#d1d1d1"
     inkscape:document-units="mm"
     inkscape:zoom="1"
     inkscape:cx="168.5"
     inkscape:cy="168"
     inkscape:window-width="1819"
     inkscape:window-height="1057"
     inkscape:window-x="0"
     inkscape:window-y="0"
     inkscape:window-maximized="1"
     inkscape:current-layer="layer1">
    <inkscape:page
       x="0"
       y="0"
       width="182.31189"
       height="50.659069"
       id="page1"
       margin="0 0 232.03159"
       bleed="0" />
  </sodipodi:namedview>
  <defs
     id="defs1">
    <linearGradient
       id="linearGradient1"
       inkscape:collect="always">
      <stop
         style="stop-color:#d8d49b;stop-opacity:1;"
         offset="0"
         id="stop1" />
      <stop
         style="stop-color:#f4eac7;stop-opacity:1;"
         offset="0.0261334"
         id="stop3" />
      <stop
         style="stop-color:#e9dbac;stop-opacity:1;"
         offset="0.94405037"
         id="stop8" />
      <stop
         style="stop-color:#eae19a;stop-opacity:1;"
         offset="1"
         id="stop2" />
    </linearGradient>
    <linearGradient
       id="linearGradient5"
       inkscape:collect="always">
      <stop
         style="stop-color:#9f760b;stop-opacity:1;"
         offset="0"
         id="stop6" />
      <stop
         style="stop-color:#906b0b;stop-opacity:1;"
         offset="1"
         id="stop7" />
    </linearGradient>
    <inkscape:path-effect
       effect="fillet_chamfer"
       id="path-effect4"
       is_visible="true"
       lpeversion="1"
       nodesatellites_param="F,0,0,1,0,0,0,1 @ F,0,0,1,0,0,0,1 @ F,0,0,1,0,0,0,1 @ F,0,0,1,0,1.7977604,0,1"
       radius="0"
       unit="px"
       method="auto"
       mode="F"
       chamfer_steps="1"
       flexible="false"
       use_knot_distance="true"
       apply_no_radius="true"
       apply_with_radius="true"
       only_selected="false"
       hide_knots="false" />
    <radialGradient
       inkscape:collect="always"
       xlink:href="#linearGradient5"
       id="radialGradient7"
       cx="110.4349"
       cy="24.943968"
       fx="110.4349"
       fy="24.943968"
       r="91.251411"
       gradientTransform="matrix(0.17108778,0,0,0.17916084,91.540836,24.178172)"
       gradientUnits="userSpaceOnUse" />
    <linearGradient
       inkscape:collect="always"
       xlink:href="#linearGradient1"
       id="linearGradient2"
       x1="-11.033036"
       y1="40.407902"
       x2="171.2758"
       y2="40.407902"
       gradientUnits="userSpaceOnUse" />
  </defs>
  <g
     inkscape:label="Layer 1"
     inkscape:groupmode="layer"
     id="layer1"
     transform="translate(11.033036,-13.106752)">
    <path
       style="display:inline;fill:url(#radialGradient7);stroke:none;stroke-width:0.264583;stroke-opacity:1"
       d="M -11.033036,29.849114 C -4.9684901,19.202005 2.4877721,17.226974 10.903422,19.157314 23.846934,22.126234 35.31855,30.957307 48.069021,32.531438 61.655882,34.208827 74.000658,20.312925 90.973294,19.27402 100.64927,18.681748 124.76137,41.714169 132.78175,32.786825 155.99582,6.947667 171.52867,12.763939 171.2758,16.177376 144.06383,67.905736 51.459409,37.261711 -11.033036,29.849114 Z"
       id="path3"
       sodipodi:nodetypes="csssscc" />
    <path
       id="rect1"
       style="fill:#8b670b;fill-opacity:1;stroke-width:0.267124"
       d="m 171.2758,16.177381 c -1.51429,9.487839 -0.0479,47.58844 -8.38098,47.58844 L -5.1717167,63.76582 -11.033036,29.849114 C -11.103237,29.442892 146.75094,54.01913 171.2758,16.177381 Z"
       sodipodi:nodetypes="czcsc" />
    <path
       style="display:inline;fill:url(#linearGradient2);fill-opacity:1;stroke-width:0.264583"
       d="M -11.033036,64.638423 V 29.849114 C 41.961959,35.973981 140.69051,65.550277 171.2758,16.177381 l -2.05172,46.665018 a 1.8785394,1.8785394 136.25875 0 1 -1.87673,1.796025 z"
       id="path2"
       sodipodi:nodetypes="ccccc"
       inkscape:path-effect="#path-effect4"
       inkscape:original-d="M -11.033036,64.638423 V 29.849114 C 41.961959,35.973981 140.69051,65.550277 171.2758,16.177381 l -2.13069,48.461043 z" />
    <ellipse
       style="display:inline;fill:#ff6973;stroke:none;stroke-width:0.264583;stroke-opacity:1;fill-opacity:1"
       id="path4"
       cx="128.4572"
       cy="24.30611"
       rx="6.7722492"
       ry="6.3932023" />
    <path
       d="m 8.5757635,64.587624 c -2.8447999,0 -5.4863999,-0.423333 -7.92479985,-1.27 -2.43839995,-0.846667 -4.63973325,-1.964267 -6.60399995,-3.3528 -1.9303999,-1.4224 -3.6237332,-2.9464 -5.0799997,-4.572 l 5.0799997,-8.077199 c 0.4402667,1.151467 1.1684,2.252133 2.1844,3.302 1.0498667,1.049867 2.2690667,1.9812 3.65759996,2.794 1.38853334,0.8128 2.84479994,1.456266 4.36879994,1.930399 1.5578667,0.474133 3.0818666,0.7112 4.5719999,0.7112 2.2351995,0 4.0131995,-0.3556 5.3339995,-1.066799 1.3208,-0.745067 1.9812,-1.7272 1.9812,-2.9464 0,-0.948267 -0.3048,-1.7272 -0.9144,-2.3368 -0.575733,-0.643467 -1.253067,-1.151467 -2.032,-1.524 -0.745067,-0.4064 -1.388533,-0.762 -1.9304,-1.0668 -0.4064,-0.2032 -1.151466,-0.508 -2.2351995,-0.9144 -1.0498667,-0.440267 -2.2352,-0.9144 -3.5559999,-1.4224 -1.3208,-0.508 -2.5738667,-0.982133 -3.7592,-1.4224 -1.18533329,-0.474133 -2.11666659,-0.8636 -2.7939999,-1.1684 -5.0461333,-2.269067 -8.5713901,-5.774267 -8.5713901,-10.5156 0,-1.524 0.3046226,-3.014133 0.8803559,-4.4704 0.6096,-1.490133 2.1955316,-3.461446 3.4147315,-4.680646 1.2192,-1.2192 2.7770667,-2.1844 4.67360002,-2.8956 1.89653328,-0.7112 4.16559988,-1.0668 6.80719988,-1.0668 2.8786663,0 5.4355991,0.321733 7.6707991,0.9652 2.2352,0.6096 4.199467,1.388533 5.8928,2.3368 1.7272,0.948267 3.514303,2.563979 4.733503,3.613846 l -4.6736,7.8232 c -3.7592,-3.725333 -8.009466,-5.588 -12.7507994,-5.588 -1.9981333,0 -3.5221333,0.220133 -4.572,0.6604 -1.016,0.4064 -1.71026662,0.880533 -2.08279995,1.4224 -0.33866666,0.508 -0.50799999,0.931333 -0.50799999,1.27 0,0.575733 0.2032,1.151467 0.60959999,1.7272 0.44026663,0.575733 1.40546665,1.185333 2.89559995,1.8288 0.6096,0.270933 1.4224,0.6096 2.4384,1.016 1.0498666,0.372533 2.2013332,0.795867 3.4543999,1.27 1.2869325,0.474133 2.5399995,0.982133 3.7591995,1.524 1.253067,0.508 2.3876,1.032933 3.4036,1.5748 1.2192,0.677333 2.472267,1.507067 3.7592,2.4892 1.286933,0.982133 2.370667,2.201333 3.2512,3.6576 0.9144,1.4224 1.3716,3.166533 1.3716,5.2324 0,1.253067 -0.237067,2.6416 -0.7112,4.165599 -0.474133,1.490133 -1.303867,2.929467 -2.4892,4.318 -1.185333,1.388533 -2.827867,2.523067 -4.9276,3.4036 -2.099733,0.880533 -4.792133,1.3208 -8.0771995,1.3208 z m 36.1695765,0 c -3.2512,0 -6.112933,-0.643467 -8.5852,-1.9304 -2.438399,-1.253067 -4.351866,-3.014133 -5.740399,-5.2832 -1.354667,-2.269066 -2.032,-4.893732 -2.032,-7.873999 0,-1.794933 0.3048,-3.674533 0.9144,-5.6388 0.6096,-1.998133 1.591733,-3.8608 2.9464,-5.588 1.354667,-1.7272 3.132666,-3.132667 5.333999,-4.2164 2.2352,-1.083733 4.944533,-1.6256 8.128,-1.6256 2.302933,0 4.233333,0.254 5.7912,0.762 1.591733,0.508 2.878667,1.1684 3.8608,1.9812 1.016,0.8128 1.778,1.6764 2.286,2.5908 0.541867,0.9144 0.897467,1.794933 1.0668,2.6416 0.2032,0.8128 0.3048,1.490133 0.3048,2.032 0,3.285067 -1.388533,5.825067 -4.1656,7.62 -2.7432,1.761067 -6.637867,2.6416 -11.684,2.6416 -1.151467,0 -2.252133,-0.0508 -3.302,-0.1524 -1.016,-0.1016 -1.964267,-0.220133 -2.8448,-0.3556 0.643467,1.693333 1.710267,2.9464 3.2004,3.759199 1.490133,0.778933 3.031067,1.1684 4.6228,1.1684 2.302933,0 4.334933,-0.4064 6.096,-1.2192 1.761067,-0.846666 3.420533,-2.133599 4.9784,-3.860799 l 4.5212,6.502399 c -1.083733,0.880533 -2.302933,1.794933 -3.6576,2.7432 -1.3208,0.948267 -2.9464,1.7272 -4.8768,2.3368 -1.9304,0.643467 -4.318,0.9652 -7.1628,0.9652 z m 1.1176,-24.536399 c -1.998133,0 -3.7592,0.508 -5.2832,1.524 -1.524,1.016 -2.6416,2.353733 -3.3528,4.0132 0.846667,0.135467 1.6764,0.254 2.4892,0.3556 0.846667,0.06773 1.6764,0.1016 2.4892,0.1016 0.745067,0 1.591733,-0.06773 2.54,-0.2032 0.982133,-0.135467 1.9304,-0.338667 2.8448,-0.6096 0.948267,-0.270933 1.7272,-0.6096 2.3368,-1.016 0.6096,-0.440267 0.9144,-0.948267 0.9144,-1.524 0,-0.270933 -0.135467,-0.6096 -0.4064,-1.016 -0.270933,-0.4064 -0.762,-0.778933 -1.4732,-1.1176 -0.7112,-0.338667 -1.744133,-0.508 -3.0988,-0.508 z m 18.287987,24.434799 c 0.135467,-2.810933 0.237067,-5.621867 0.3048,-8.4328 0.06773,-2.810933 0.1016,-5.587999 0.1016,-8.331199 -0.03387,-2.506133 -0.08467,-4.9784 -0.1524,-7.4168 -0.03387,-2.472267 -0.118533,-4.859867 -0.254,-7.1628 l 8.534399,-0.254 c 0.03387,1.253067 0.08467,2.54 0.1524,3.8608 1.083733,-1.354667 2.3368,-2.4384 3.7592,-3.2512 1.456267,-0.846667 3.115733,-1.27 4.9784,-1.27 0.7112,0 1.6256,0.1016 2.7432,0.3048 1.1176,0.2032 2.252133,0.592667 3.4036,1.1684 l -0.9652,8.5852 c -0.846667,-0.508 -1.761067,-0.8636 -2.7432,-1.0668 -0.948267,-0.237067 -1.744133,-0.3556 -2.3876,-0.3556 -2.167467,0 -4.0132,0.982133 -5.5372,2.9464 -1.490133,1.9304 -2.506133,4.6228 -3.048,8.0772 0,2.370666 -0.03387,4.639732 -0.1016,6.807199 -0.03387,2.1336 -0.118533,4.064 -0.254,5.7912 z m 26.039527,0.235715 c -0.1016,-2.980267 -0.165427,-6.280915 -0.23316,-8.820915 -0.03387,-2.539999 -0.0508,-5.046132 -0.0508,-7.518399 0,-2.472267 0.01693,-4.944533 0.0508,-7.4168 0.06773,-2.506133 0.169333,-5.1816 0.3048,-8.0264 h 8.5852 c -0.135467,1.524 -0.254,3.064933 -0.3556,4.6228 1.151464,-1.456267 2.523066,-2.658533 4.114796,-3.6068 1.59173,-0.982133 3.47133,-1.4732 5.6388,-1.4732 2.1336,0 3.87773,0.3556 5.2324,1.0668 1.38853,0.7112 2.47227,1.693333 3.2512,2.9464 0.8128,1.253067 1.38853,2.6924 1.7272,4.318 0.37253,1.591733 0.6096,3.318933 0.7112,5.1816 0.1016,1.8288 0.1524,3.674533 0.1524,5.5372 0,2.032 -0.0339,3.979333 -0.1016,5.841999 -0.0677,1.862667 -0.13547,3.420533 -0.2032,4.6736 -0.0677,1.253067 -0.22216,2.505573 -0.25603,2.74264 h -8.5344 c 0.0677,-1.388533 0.2391,-3.369173 0.30683,-4.92704 0.0677,-1.591733 0.13547,-3.1496 0.2032,-4.673599 0.0677,-1.557867 0.1016,-2.963333 0.1016,-4.2164 0,-7.2136 -1.1684,-10.8204 -3.5052,-10.8204 -1.9304,0 -3.69147,0.846667 -5.2832,2.54 -1.55786,1.659467 -2.861729,3.7592 -3.911596,6.2992 v 1.016 5.08 c 0.03387,1.727199 0.06773,3.386666 0.1016,4.978399 0.06773,1.557867 0.09769,3.453048 0.13156,4.604515 z M 123.96686,64.659 c -0.1016,-2.099733 -0.19364,-4.914309 -0.22751,-7.284976 -0.0339,-2.404533 -0.0508,-4.809066 -0.0508,-7.213599 0,-3.1496 0.0339,-6.214533 0.1016,-9.1948 0.0677,-2.980267 0.0236,-4.249948 0.12519,-6.688348 4.37113,1.111402 6.96522,0.555524 8.86641,-1.490452 -0.13547,1.557867 -0.22013,3.488267 -0.254,5.7912 -0.0339,2.269067 -0.0508,4.656667 -0.0508,7.1628 0,2.472267 0.0169,4.910667 0.0508,7.3152 0.0339,2.404533 0.0677,4.588932 0.1016,6.553199 0.0677,1.9304 0.14284,3.999909 0.17671,5.049776 z m 14.09808,0.303579 c -0.13547,-1.6256 -0.254,-4.438955 -0.3556,-6.978955 -0.0677,-2.539999 -0.1016,-5.300132 -0.1016,-8.280399 0,-2.6416 0.0169,-5.367867 0.0508,-8.1788 0.0677,-2.810933 0.1524,-5.571067 0.254,-8.2804 0.10614,-2.149312 0.21228,-4.184278 0.31842,-6.104899 2.80092,-2.708085 5.76441,-5.121966 8.8589,-7.298748 l 0.33747,-0.23616 0.6704,-0.449575 c -0.47413,3.4544 -1.22746,7.688585 -1.49839,11.244585 -0.23707,3.522133 -0.38947,7.112 -0.4572,10.7696 1.89653,-1.3208 4.09787,-2.709333 6.604,-4.1656 2.54,-1.490133 5.588,-3.166533 9.144,-5.0292 l 4.7752,7.9756 c -3.6576,1.151467 -6.89187,2.472267 -9.7028,3.9624 -2.81093,1.456267 -5.11387,2.929467 -6.9088,4.4196 -0.33867,0.237067 -0.5588,0.4064 -0.6604,0.508 -0.1016,0.1016 -0.1524,0.169333 -0.1524,0.2032 0,0.2032 0.5588,0.575733 1.6764,1.1176 1.49013,0.778933 3.03107,1.540933 4.6228,2.286 1.59173,0.745067 3.36973,1.507067 5.334,2.286 1.96427,0.745066 4.2164,1.540932 6.7564,2.387599 l -3.5052,7.5184 c -3.08187,-0.9144 -6.16373,-2.065867 -9.2456,-3.4544 -3.08187,-1.388533 -5.87587,-2.794 -8.382,-4.2164 0.0339,1.151467 0.0847,2.319867 0.1524,3.5052 0.1016,1.185333 0.18627,3.101222 0.254,4.286555 z"
       id="text7"
       style="font-size:50.8px;font-family:'Mochiy Pop One';-inkscape-font-specification:'Mochiy Pop One';display:inline;fill:#693d62;stroke-width:0.264583;fill-opacity:1"
       aria-label="Sernik"
       sodipodi:nodetypes="ssccccscscsccccsccscsssccccsccsccccccscscssssccscscsccccscscccscccccsssccscccsssscsccccccsscccscccccccscccccsccccsssccccsscccccccccsscccsscccccscccccccccccccsscscccscccc" />
  </g>
</svg>
